<?xml version="1.0" encoding="UTF-8" standalone="no"?>
<!-- Created with Inkscape (http://www.inkscape.org/) -->

<svg
   xmlns:dc="http://purl.org/dc/elements/1.1/"
   xmlns:cc="http://creativecommons.org/ns#"
   xmlns:rdf="http://www.w3.org/1999/02/22-rdf-syntax-ns#"
   xmlns:svg="http://www.w3.org/2000/svg"
   xmlns="http://www.w3.org/2000/svg"
   xmlns:sodipodi="http://sodipodi.sourceforge.net/DTD/sodipodi-0.dtd"
   xmlns:inkscape="http://www.inkscape.org/namespaces/inkscape"
   width="29.600012mm"
   height="33.297848mm"
   viewBox="0 0 104.88193 117.9845"
   id="svg2"
   version="1.1"
   inkscape:version="0.91 r13725"
   sodipodi:docname="icon1.svg">
  <defs
     id="defs4" />
  <sodipodi:namedview
     id="base"
     pagecolor="#ffffff"
     bordercolor="#666666"
     borderopacity="1.0"
     inkscape:pageopacity="0.0"
     inkscape:pageshadow="2"
     inkscape:zoom="3.959798"
     inkscape:cx="138.17405"
     inkscape:cy="46.928457"
     inkscape:document-units="px"
     inkscape:current-layer="svg2"
     showgrid="false"
     fit-margin-top="0"
     fit-margin-left="0"
     fit-margin-right="0"
     fit-margin-bottom="0"
     inkscape:window-width="1920"
     inkscape:window-height="1020"
     inkscape:window-x="0"
     inkscape:window-y="31"
     inkscape:window-maximized="1" />
  <g
     inkscape:label="Layer 1"
     inkscape:groupmode="layer"
     id="layer1"
     transform="translate(-303.05372,-251.42593)">
    <path
       inkscape:connector-curvature="0"
       id="path3386"
       d="m 342.18074,362.0383 c -7.46227,-7.51241 -8.39511,-9.80007 -4.89497,-12.00426 1.44023,-0.90698 2.62491,-0.20899 7.03145,4.14282 2.91466,2.87846 5.7458,5.23356 6.29141,5.23356 0.5456,0 4.58145,-3.61456 8.96855,-8.03236 8.15968,-8.21679 10.61715,-9.3104 12.86467,-5.72498 0.92737,1.47943 -0.56518,3.40539 -9.88082,12.75 -6.03526,6.05404 -11.44214,11.00734 -12.01528,11.00734 -0.57315,0 -4.3374,-3.31746 -8.36501,-7.37212 z m -38.41444,1.75136 c -0.39192,-0.39191 -0.71258,-7.4055 -0.71258,-15.58575 0,-16.91805 1.17932,-20.8871 7.33695,-24.69272 3.30958,-2.04543 4.48521,-2.10077 44.62995,-2.10077 46.68315,0 46.14373,-0.0801 50.59388,7.5135 2.40434,4.10269 2.48278,4.79719 2.21589,19.61987 l -0.27667,15.36663 -3,0 -3,0 -0.5,-15.33894 c -0.49889,-15.30476 -0.50625,-15.34431 -3.30576,-17.75 l -2.80577,-2.41106 -39.38847,0 -39.38847,0 -2.80577,2.41106 c -2.79951,2.40569 -2.80687,2.44524 -3.30576,17.75 l -0.5,15.33894 -2.53742,0.29591 c -1.39559,0.16275 -2.85809,-0.0248 -3.25,-0.41667 z m 41.60647,-52.23485 c -13.94116,-4.81745 -22.98328,-20.09594 -20.29195,-34.2873 2.14352,-11.30271 9.26377,-19.95148 19.61332,-23.82374 13.16194,-4.92452 27.54868,-0.63297 35.7509,10.66443 14.87579,20.48932 -0.009,49.45046 -25.32282,49.26957 -2.51268,-0.018 -6.89993,-0.83828 -9.74945,-1.82296 z m 20.74916,-8.21258 c 7.96352,-3.98816 12.91396,-12.30409 12.92621,-21.71393 0.0187,-14.32802 -14.21658,-25.50053 -28.4364,-22.31828 -17.4851,3.913 -24.61325,25.17846 -12.81662,38.23592 7.65651,8.47484 18.53392,10.7006 28.32681,5.79629 z m 3.48458,-13.8464 c -0.32198,-0.52097 -0.15917,-1.21065 0.3618,-1.53262 0.52097,-0.32198 1.21065,-0.15917 1.53262,0.3618 0.32198,0.52097 0.15917,1.21065 -0.3618,1.53262 -0.52097,0.32198 -1.21065,0.15917 -1.53262,-0.3618 z m 1.42525,-6.83541 c -0.0329,-4.1151 -3.4505,-10.85824 -6.52397,-12.87205 -1.49243,-0.97788 -4.53101,-2.02546 -6.7524,-2.32796 -4.74126,-0.64564 -6.36492,-3.06159 -2.035,-3.02803 6.29209,0.0488 14.04594,5.43187 16.26672,11.29314 1.34642,3.55361 1.38859,9.6849 0.0666,9.6849 -0.55,0 -1.00988,-1.2375 -1.02196,-2.75 z"
        />
  </g>
  <metadata
     id="metadata3410">
    <rdf:RDF>
      <cc:Work
         rdf:about="">
        <dc:title></dc:title>
      </cc:Work>
    </rdf:RDF>
  </metadata>
</svg>
