<?xml version="1.0" encoding="UTF-8" standalone="no"?>
<!-- Created with Inkscape (http://www.inkscape.org/) -->

<svg
   xmlns:svg="http://www.w3.org/2000/svg"
   xmlns="http://www.w3.org/2000/svg"
   xmlns:sodipodi="http://sodipodi.sourceforge.net/DTD/sodipodi-0.dtd"
   xmlns:inkscape="http://www.inkscape.org/namespaces/inkscape"
   width="20.721809mm"
   height="30.288738mm"
   viewBox="0 0 73.423734 107.3223"
   id="svg2"
   version="1.1"
   inkscape:version="0.91 r13725"
   sodipodi:docname="icon3.svg">
  <defs
     id="defs4" />
  <sodipodi:namedview
     id="base"
     pagecolor="#ffffff"
     bordercolor="#666666"
     borderopacity="1.0"
     inkscape:pageopacity="0.0"
     inkscape:pageshadow="2"
     inkscape:zoom="5.6"
     inkscape:cx="69.570068"
     inkscape:cy="50.433681"
     inkscape:document-units="px"
     inkscape:current-layer="svg2"
     showgrid="false"
     fit-margin-top="0"
     fit-margin-left="0"
     fit-margin-right="0"
     fit-margin-bottom="0"
     inkscape:window-width="1920"
     inkscape:window-height="1020"
     inkscape:window-x="0"
     inkscape:window-y="31"
     inkscape:window-maximized="1" />
  <g
     inkscape:label="Layer 1"
     inkscape:groupmode="layer"
     id="layer1"
     transform="translate(-277.91659,-94.930101)">
    <path
       inkscape:connector-curvature="0"
       id="path3408"
       d="m 310.58326,201.57887 c -1.94798,-1.94797 -0.42408,-3.33333 3.66666,-3.33333 4.91798,0 6.1448,0.71896 4.53555,2.65799 -1.14567,1.38045 -7.01394,1.86362 -8.20221,0.67534 z m -4.52998,-8.66863 c -0.64416,-0.77616 -0.88387,-2.15996 -0.53269,-3.07512 0.53974,-1.40655 1.97312,-1.61949 9.26725,-1.37674 8.46076,0.28157 8.62875,0.33583 8.62875,2.78716 0,2.43709 -0.20372,2.50725 -8.09606,2.78796 -6.02691,0.21436 -8.39538,-0.0727 -9.26725,-1.12326 z m -2.77995,-11.17744 c -1.28885,-3.35869 1.51374,-4.48726 11.14326,-4.48726 9.62952,0 12.43211,1.12857 11.14326,4.48726 -0.46747,1.2182 -2.6371,1.51274 -11.14326,1.51274 -8.50616,0 -10.67579,-0.29454 -11.14326,-1.51274 z m -3.73975,-11.04298 c -0.33934,-0.88432 -0.61699,-2.39625 -0.61699,-3.35985 0,-0.99499 -2.34529,-3.36726 -5.42789,-5.49032 -10.0353,-6.91158 -15.57211,-17.83278 -15.57211,-30.71553 0,-20.49096 15.75079,-36.109554 36.5,-36.193664 14.83898,-0.0602 27.04202,7.545494 33.65314,20.974594 2.77933,5.64562 3.21028,7.57981 3.2689,14.6717 0.11233,13.58736 -5.36961,24.41382 -15.94937,31.4989 -3.81483,2.55473 -5.08909,4.06819 -5.47267,6.5 l -0.5,3.16989 -14.63301,0.27606 c -12.68475,0.23931 -14.71516,0.062 -15.25,-1.33178 z m 24.38301,-6.84882 c 0,-1.86123 1.1997,-3.08161 5.30953,-5.40106 18.31956,-10.33892 21.76929,-33.99898 7.07767,-48.54238 -18.73347,-18.544494 -50.2783,-6.77351 -52.16183,19.46421 -0.86827,12.09498 4.28603,21.9907 14.85053,28.51148 4.52328,2.79193 5.9241,4.21411 5.9241,6.01443 0,2.31168 0.18605,2.35786 9.5,2.35786 9.36609,0 9.5,-0.0339 9.5,-2.40454 z m -16.43058,-16.6844 c -3.1224,-7.80346 -5.43437,-14.82062 -5.13771,-15.59369 0.40992,-1.06825 2.28022,-1.33499 7.79322,-1.11147 5.97391,0.24221 7.31278,0.60289 7.58779,2.0441 0.2857,1.49728 -0.47092,1.75 -5.2394,1.75 -3.06532,0 -5.57332,0.22189 -5.57332,0.4931 0,2.01349 7.43296,18.46753 8.05218,17.82478 0.43338,-0.44983 2.46321,-5.09288 4.51074,-10.31788 4.21862,-10.76529 5.56272,-12.80511 7.11652,-10.80019 1.39112,1.795 -9.5276,29.14727 -11.81077,29.58697 -1.2391,0.23862 -2.96276,-3.03802 -7.29925,-13.87572 z m 28.86802,-12.2135 c -1.12573,-2.93359 -0.0127,-10.19756 1.56256,-10.19756 1.94618,0 2.18237,10.60588 0.25053,11.24982 -0.68722,0.22907 -1.5031,-0.24444 -1.81309,-1.05226 z m -5.40449,-17.636 c -0.57059,-1.06614 -3.9296,-3.36225 -7.46448,-5.10247 -4.37558,-2.15409 -6.25588,-3.61011 -5.89078,-4.56156 0.73608,-1.91819 2.02257,-1.75607 7.82231,0.98576 5.55871,2.62789 11.08111,7.86743 10.05022,9.53545 -1.05417,1.70569 -3.38208,1.26395 -4.51727,-0.85718 z"
       />
  </g>
</svg>
