<svg xmlns="http://www.w3.org/2000/svg" width="77.867" height="99.2" viewBox="0 0 73.000001 92.999997"><path d="M1.655 91.171C.194 89.557 0 85.894 0 59.91V30.476l15.262-15.238L30.523 0H49.54c15.593 0 19.416.28 21.238 1.557L73 3.113v43.289c0 40.667-.11 43.388-1.829 44.943C69.547 92.815 65.645 93 36.326 93c-30.715 0-33.131-.127-34.671-1.829zM68 46.5V5H32v27H5v56h63V46.5zM13.667 77.333C11.93 75.598 13.554 75 20 75c5.556 0 7 .31 7 1.5 0 1.175-1.37 1.5-6.333 1.5-3.484 0-6.634-.3-7-.667zm22.03.031C33.789 75.455 35.98 75 47.084 75c9.222 0 11.985.296 11.669 1.25-.454 1.367-21.772 2.397-23.054 1.114zM13.25 65.75c.313-.939 5.934-1.317 22.584-1.52C55.113 63.998 58 64.16 58 65.48 58 66.796 54.95 67 35.417 67c-17.622 0-22.492-.275-22.168-1.25zm.449-9.386C11.788 54.455 13.979 54 25.083 54c9.222 0 11.985.296 11.669 1.25-.454 1.367-21.772 2.397-23.054 1.114zM45 55.5c0-1.19 1.444-1.5 7-1.5s7 .31 7 1.5-1.444 1.5-7 1.5-7-.31-7-1.5zM13.25 44.75c.312-.939 5.933-1.317 22.583-1.52C55.113 42.998 58 43.16 58 44.48 58 45.796 54.95 46 35.417 46c-17.622 0-22.492-.275-22.168-1.25zM29 18.93V8.86l-10 9.288c-5.5 5.109-10 9.64-10 10.07 0 .43 4.5.782 10 .782h10V18.93z"/></svg>