<svg xmlns="http://www.w3.org/2000/svg" width="111.874" height="125.85" viewBox="0 0 104.88193 117.9845"><path d="M39.127 110.612c-7.462-7.512-8.395-9.8-4.895-12.004 1.44-.907 2.625-.209 7.032 4.143 2.914 2.878 5.745 5.233 6.29 5.233.547 0 4.582-3.614 8.97-8.032 8.16-8.217 10.617-9.31 12.864-5.725.928 1.48-.565 3.406-9.88 12.75-6.036 6.054-11.443 11.007-12.016 11.007-.573 0-4.337-3.317-8.365-7.372zM.713 112.364C.32 111.972 0 104.958 0 96.778 0 79.86 1.18 75.891 7.337 72.085c3.31-2.045 4.485-2.1 44.63-2.1 46.683 0 46.144-.08 50.594 7.513 2.404 4.103 2.483 4.797 2.216 19.62l-.277 15.366h-6L98 97.146c-.499-15.305-.506-15.345-3.306-17.75l-2.806-2.412H13.112l-2.806 2.412C7.506 81.8 7.499 81.84 7 97.146l-.5 15.338-2.537.296c-1.396.163-2.859-.024-3.25-.416zm41.606-52.235C28.378 55.31 19.336 40.033 22.027 25.842 24.171 14.539 31.291 5.89 41.64 2.018c13.162-4.925 27.55-.633 35.751 10.664 14.876 20.49-.009 49.45-25.322 49.27-2.513-.018-6.9-.838-9.75-1.823zm20.75-8.213c7.963-3.988 12.913-12.304 12.925-21.714.02-14.328-14.216-25.5-28.436-22.318-17.485 3.913-24.613 25.179-12.817 38.236 7.657 8.475 18.534 10.7 28.327 5.796zm3.484-13.846a1.117 1.117 0 0 1 .362-1.533 1.117 1.117 0 0 1 1.532.362c.322.521.16 1.21-.362 1.533-.52.322-1.21.159-1.532-.362zm1.425-6.836c-.033-4.115-3.45-10.858-6.524-12.872-1.492-.977-4.53-2.025-6.752-2.328-4.742-.645-6.365-3.061-2.035-3.028 6.292.05 14.046 5.432 16.266 11.294 1.347 3.553 1.389 9.684.067 9.684-.55 0-1.01-1.237-1.022-2.75z" fill="#010101"/></svg>