<svg xmlns="http://www.w3.org/2000/svg" width="78.319" height="114.477" viewBox="0 0 73.423734 107.3223"><path d="M32.667 106.649c-1.948-1.948-.424-3.334 3.666-3.334 4.918 0 6.145.72 4.536 2.658-1.146 1.38-7.014 1.864-8.202.676zm-4.53-8.669c-.644-.776-.884-2.16-.533-3.075.54-1.407 1.973-1.62 9.267-1.377 8.461.282 8.629.336 8.629 2.787 0 2.438-.204 2.508-8.096 2.788-6.027.215-8.395-.072-9.267-1.123zm-2.78-11.177c-1.29-3.359 1.513-4.488 11.143-4.488s12.432 1.129 11.143 4.488c-.467 1.218-2.637 1.512-11.143 1.512s-10.676-.294-11.143-1.512zm-3.74-11.043c-.34-.885-.617-2.397-.617-3.36 0-.995-2.345-3.367-5.428-5.49C5.537 59.998 0 49.077 0 36.194 0 15.704 15.75.084 36.5 0c14.839-.06 27.042 7.546 33.653 20.975 2.78 5.646 3.21 7.58 3.269 14.672.112 13.587-5.37 24.413-15.95 31.499-3.814 2.554-5.088 4.068-5.472 6.5l-.5 3.17-14.633.275c-12.685.24-14.715.062-15.25-1.331zM46 68.91c0-1.86 1.2-3.08 5.31-5.4 18.32-10.34 21.769-34 7.077-48.543C39.654-3.577 8.11 8.194 6.225 34.432c-.868 12.095 4.286 21.99 14.85 28.511C25.6 65.735 27 67.157 27 68.958c0 2.311.186 2.357 9.5 2.357 9.366 0 9.5-.033 9.5-2.404zM29.57 52.227c-3.123-7.803-5.435-14.82-5.138-15.593.41-1.068 2.28-1.335 7.793-1.112 5.974.243 7.313.603 7.588 2.044.285 1.498-.471 1.75-5.24 1.75-3.065 0-5.573.222-5.573.494 0 2.013 7.433 18.467 8.052 17.824.434-.45 2.463-5.093 4.51-10.318 4.22-10.765 5.564-12.805 7.117-10.8 1.392 1.795-9.527 29.148-11.81 29.587-1.24.239-2.963-3.038-7.3-13.876zm28.867-12.213c-1.125-2.934-.012-10.198 1.563-10.198 1.946 0 2.182 10.606.25 11.25-.687.23-1.503-.244-1.813-1.052zm-5.404-17.636c-.57-1.066-3.93-3.362-7.465-5.102-4.375-2.155-6.255-3.61-5.89-4.562.736-1.918 2.022-1.756 7.822.986 5.559 2.628 11.081 7.867 10.05 9.535-1.054 1.706-3.382 1.264-4.517-.857z" fill="#b7b7b7"/></svg>